<?xml version="1.0" encoding="iso-8859-1"?>
<!-- Generator: Adobe Illustrator 19.0.0, SVG Export Plug-In . SVG Version: 6.00 Build 0)  -->
<svg version="1.1" id="Layer_1" xmlns="http://www.w3.org/2000/svg" xmlns:xlink="http://www.w3.org/1999/xlink" x="0px" y="0px"
	 viewBox="0 0 512 512" style="enable-background:new 0 0 512 512;" xml:space="preserve">
<g>
	<circle style="fill:#CEE8FA;" cx="333.567" cy="190.352" r="34.904"/>
	<circle style="fill:#CEE8FA;" cx="178.437" cy="190.352" r="34.904"/>
	<path style="fill:#CEE8FA;" d="M413.268,300.012c12.911,0,25.086,3.126,35.838,8.632l3.863-30.537H59.03l9.618,76.013h269.813
		C348.811,322.703,378.382,300.012,413.268,300.012z"/>
</g>
<g>
	<path style="fill:#2D527C;" d="M467.368,279.929l0.007-0.061l9.162-75.01h20.95c8.016,0,14.513-6.497,14.513-14.513
		c0-8.016-6.497-14.513-14.513-14.513h-59.974c-8.016,0-14.513,6.497-14.513,14.513c0,8.016,6.497,14.513,14.513,14.513h9.783
		l-7.174,58.738H71.879l-7.174-58.738h66.491c6.214,20.188,25.039,34.904,47.24,34.904c22.201,0,41.024-14.716,47.238-34.904h60.653
		c6.214,20.188,25.039,34.904,47.238,34.904c27.25,0,49.418-22.169,49.418-49.417c0-23.427-16.391-43.085-38.303-48.143
		l-38.655-93.297c-3.068-7.406-11.558-10.921-18.963-7.853s-10.921,11.558-7.853,18.963l35.135,84.802
		c-13.349,5.657-23.711,17.021-28.019,31.014h-60.653c-4.307-13.992-14.67-25.357-28.019-31.014l35.135-84.802
		c3.068-7.405-0.448-15.895-7.853-18.963c-7.403-3.068-15.895,0.447-18.963,7.853l-38.653,93.298
		c-17.191,3.968-30.981,16.916-36.126,33.63H14.513C6.497,175.833,0,182.331,0,190.346c0,8.016,6.497,14.513,14.513,14.513h20.95
		L64.97,440.603c0.919,7.252,7.088,12.69,14.398,12.69h277.86c15.613,11.771,35.024,18.764,56.039,18.764
		c51.433,0,93.277-41.845,93.277-93.278c0-32.437-16.651-61.045-41.844-77.764l2.667-21.082
		C467.368,279.931,467.368,279.931,467.368,279.929z M333.172,169.973c0.444,0.042,0.887,0.099,1.337,0.099
		c0.237,0,0.475-0.023,0.711-0.035c10.471,0.848,18.738,9.622,18.738,20.308c0,11.245-9.148,20.391-20.392,20.391
		s-20.391-9.148-20.391-20.391C313.175,179.234,322.11,170.186,333.172,169.973z M176.779,170.037
		c0.238,0.012,0.476,0.035,0.713,0.035c0.45,0,0.893-0.057,1.337-0.099c11.062,0.212,19.997,9.261,19.997,20.372
		c0,11.245-9.148,20.391-20.391,20.391s-20.392-9.148-20.392-20.391C158.042,179.66,166.309,170.884,176.779,170.037z
		 M329.335,338.115c-0.068,0.139-0.136,0.277-0.205,0.417c-0.173,0.363-0.361,0.714-0.53,1.08H81.444l-5.947-46.987h301.932
		C356.611,301.266,339.379,317.316,329.335,338.115z M85.117,368.636H320.55c-0.363,3.332-0.562,6.714-0.562,10.142
		c0,16.51,4.329,32.02,11.886,45.488H92.159L85.117,368.636z M413.268,443.029c-35.429,0-64.252-28.823-64.252-64.252
		c0-7.4,1.273-14.504,3.585-21.125c0.141-0.406,0.279-0.814,0.428-1.216c7.255-19.498,23.717-34.554,44.077-39.848
		c0.068-0.017,0.136-0.036,0.205-0.054c1.98-0.508,3.997-0.922,6.045-1.241c0.19-0.029,0.383-0.052,0.575-0.08
		c0.778-0.113,1.562-0.213,2.348-0.299c0.311-0.033,0.623-0.064,0.935-0.093c0.711-0.067,1.425-0.12,2.142-0.164
		c0.302-0.017,0.601-0.041,0.904-0.054c0.998-0.046,2-0.077,3.009-0.077c1.19,0,2.371,0.039,3.548,0.103
		c0.486,0.026,0.967,0.073,1.45,0.11c0.672,0.051,1.344,0.104,2.012,0.177c0.601,0.065,1.199,0.147,1.794,0.228
		c0.534,0.073,1.067,0.149,1.596,0.237c0.65,0.106,1.297,0.222,1.94,0.348c0.47,0.091,0.939,0.192,1.406,0.295
		c0.665,0.145,1.326,0.293,1.984,0.459c0.462,0.116,0.919,0.248,1.379,0.376c0.64,0.177,1.283,0.348,1.914,0.544
		c1.025,0.319,2.042,0.66,3.052,1.032c0.377,0.138,0.745,0.296,1.119,0.441c0.736,0.287,1.47,0.576,2.199,0.893
		c0.385,0.165,0.762,0.344,1.141,0.517c0.707,0.322,1.411,0.655,2.109,1.004c21.086,10.551,35.606,32.349,35.606,57.489
		C477.519,414.206,448.696,443.029,413.268,443.029z"/>
	<path style="fill:#2D527C;" d="M437.098,393.29h-47.661c-8.016,0-14.513-6.497-14.513-14.513c0-8.016,6.497-14.513,14.513-14.513
		h47.661c8.016,0,14.513,6.497,14.513,14.513C451.611,386.793,445.114,393.29,437.098,393.29z"/>
</g>
<g>
</g>
<g>
</g>
<g>
</g>
<g>
</g>
<g>
</g>
<g>
</g>
<g>
</g>
<g>
</g>
<g>
</g>
<g>
</g>
<g>
</g>
<g>
</g>
<g>
</g>
<g>
</g>
<g>
</g>
</svg>
